<svg width="878" height="617" viewBox="0 0 878 617" fill="none" xmlns="http://www.w3.org/2000/svg">
<g opacity="0.7" filter="url(#filter0_f_64_2)">
<path d="M588.328 75.2553C711.749 92.1393 689.604 262.472 756.199 262.472C788.686 262.472 807.498 290.485 804.732 318.333C801.828 347.571 775.139 376.627 715.518 372.892C599.109 365.6 626.726 240.344 561.51 212.658C496.294 184.972 459.392 289.869 400.861 296.926C342.33 303.983 351.462 274.095 273.421 289.869C195.379 305.644 192.712 356.804 122.734 354.212C52.7567 351.62 64.3799 289.869 109.866 289.869C155.352 289.869 174.032 201.035 242.702 177.373C311.373 153.712 374.155 214.117 419.541 177.373C464.928 140.63 464.906 58.3714 588.328 75.2553Z" fill="url(#paint0_linear_64_2)"/>
</g>
<g opacity="0.18" filter="url(#filter1_f_64_2)">
<path d="M338.005 350.92C429.417 328.71 404.095 390.562 511.283 320.408C618.47 250.254 553.952 379.563 693.015 436.434C832.078 493.304 338.004 426.886 185.496 522.154C32.9875 617.421 246.592 373.13 338.005 350.92Z" fill="url(#paint1_linear_64_2)"/>
</g>
<g opacity="0.45">
<g filter="url(#filter2_f_64_2)">
<path d="M245.272 226.592L255.475 254.165L283.048 264.368L255.475 274.571L245.272 302.143L235.07 274.571L207.497 264.368L235.07 254.165L245.272 226.592Z" fill="url(#paint2_radial_64_2)"/>
</g>
<g filter="url(#filter3_f_64_2)">
<path d="M295.086 289.69L301.253 306.354L317.917 312.521L301.253 318.688L295.086 335.352L288.92 318.688L272.255 312.521L288.92 306.354L295.086 289.69Z" fill="url(#paint3_radial_64_2)"/>
</g>
<g filter="url(#filter4_f_64_2)">
<path d="M535.853 136.928L542.019 153.592L558.684 159.759L542.019 165.925L535.853 182.59L529.686 165.925L513.021 159.759L529.686 153.592L535.853 136.928Z" fill="url(#paint4_radial_64_2)"/>
</g>
<g opacity="0.45" filter="url(#filter5_f_64_2)">
<path d="M219.535 381.015L223.518 390.754L229.961 399.072L219.535 397.651L209.11 399.072L215.553 390.754L219.535 381.015Z" fill="url(#paint5_radial_64_2)"/>
</g>
<g opacity="0.45" filter="url(#filter6_f_64_2)">
<path d="M282.633 202.516L285.884 211.303L294.671 214.554L285.884 217.805L282.633 226.592L279.381 217.805L270.594 214.554L279.381 211.303L282.633 202.516Z" fill="url(#paint6_radial_64_2)"/>
</g>
<g opacity="0.51" filter="url(#filter7_f_64_2)">
<path d="M564.911 195.874L568.162 204.661L576.949 207.912L568.162 211.164L564.911 219.95L561.659 211.164L552.872 207.912L561.659 204.661L564.911 195.874Z" fill="url(#paint7_radial_64_2)"/>
</g>
<g filter="url(#filter8_f_64_2)">
<path d="M483.548 328.71L486.8 337.497L495.586 340.749L486.8 344L483.548 352.787L480.297 344L471.51 340.749L480.297 337.497L483.548 328.71Z" fill="url(#paint8_radial_64_2)"/>
</g>
<g filter="url(#filter9_f_64_2)">
<path d="M621.366 84.6232L631.569 112.196L659.141 122.399L631.569 132.601L621.366 160.174L611.163 132.601L583.591 122.399L611.163 112.196L621.366 84.6232Z" fill="url(#paint9_radial_64_2)"/>
</g>
<g opacity="0.98" filter="url(#filter10_f_64_2)">
<path d="M612.649 193.383L617.133 205.503L629.253 209.988L617.133 214.472L612.649 226.592L608.164 214.472L596.044 209.988L608.164 205.503L612.649 193.383Z" fill="url(#paint10_radial_64_2)"/>
</g>
<g opacity="0.6" filter="url(#filter11_f_64_2)">
<path d="M248.178 352.787L252.663 364.907L264.783 369.392L252.663 373.876L248.178 385.996L243.694 373.876L231.574 369.392L243.694 364.907L248.178 352.787Z" fill="url(#paint11_radial_64_2)"/>
</g>
<g opacity="0.3" filter="url(#filter12_f_64_2)">
<path d="M575.288 352.787L579.773 364.907L591.893 369.392L579.773 373.876L575.288 385.996L570.804 373.876L558.684 369.392L570.804 364.907L575.288 352.787Z" fill="url(#paint12_radial_64_2)"/>
</g>
<g filter="url(#filter13_f_64_2)">
<path d="M450.339 273.085L458.748 295.81L481.473 304.219L458.748 312.628L450.339 335.352L441.93 312.628L419.205 304.219L441.93 295.81L450.339 273.085Z" fill="url(#paint13_radial_64_2)"/>
</g>
<g filter="url(#filter14_f_64_2)">
<path d="M652.915 136.928L661.324 159.652L684.048 168.061L661.324 176.47L652.915 199.195L644.506 176.47L621.781 168.061L644.506 159.652L652.915 136.928Z" fill="url(#paint14_radial_64_2)"/>
</g>
<g filter="url(#filter15_f_64_2)">
<path d="M595.629 322.899L598.88 331.686L607.667 334.937L598.88 338.189L595.629 346.975L592.378 338.189L583.591 334.937L592.378 331.686L595.629 322.899Z" fill="url(#paint15_radial_64_2)"/>
</g>
<g opacity="0.41" filter="url(#filter16_f_64_2)">
<path d="M276.821 425.847L280.073 434.634L288.859 437.886L280.073 441.137L276.821 449.924L273.57 441.137L264.783 437.886L273.57 434.634L276.821 425.847Z" fill="url(#paint16_radial_64_2)"/>
</g>
</g>
<defs>
<filter id="filter0_f_64_2" x="0.5" y="0.5" width="877" height="445.218" filterUnits="userSpaceOnUse" color-interpolation-filters="sRGB">
<feFlood flood-opacity="0" result="BackgroundImageFix"/>
<feBlend mode="normal" in="SourceGraphic" in2="BackgroundImageFix" result="shape"/>
<feGaussianBlur stdDeviation="36.25" result="effect1_foregroundBlur_64_2"/>
</filter>
<filter id="filter1_f_64_2" x="59.631" y="227.568" width="730.281" height="389.04" filterUnits="userSpaceOnUse" color-interpolation-filters="sRGB">
<feFlood flood-opacity="0" result="BackgroundImageFix"/>
<feBlend mode="normal" in="SourceGraphic" in2="BackgroundImageFix" result="shape"/>
<feGaussianBlur stdDeviation="36.25" result="effect1_foregroundBlur_64_2"/>
</filter>
<filter id="filter2_f_64_2" x="192.797" y="211.892" width="104.951" height="104.951" filterUnits="userSpaceOnUse" color-interpolation-filters="sRGB">
<feFlood flood-opacity="0" result="BackgroundImageFix"/>
<feBlend mode="normal" in="SourceGraphic" in2="BackgroundImageFix" result="shape"/>
<feGaussianBlur stdDeviation="7.35" result="effect1_foregroundBlur_64_2"/>
</filter>
<filter id="filter3_f_64_2" x="257.555" y="274.99" width="75.0626" height="75.0626" filterUnits="userSpaceOnUse" color-interpolation-filters="sRGB">
<feFlood flood-opacity="0" result="BackgroundImageFix"/>
<feBlend mode="normal" in="SourceGraphic" in2="BackgroundImageFix" result="shape"/>
<feGaussianBlur stdDeviation="7.35" result="effect1_foregroundBlur_64_2"/>
</filter>
<filter id="filter4_f_64_2" x="498.321" y="122.228" width="75.0626" height="75.0626" filterUnits="userSpaceOnUse" color-interpolation-filters="sRGB">
<feFlood flood-opacity="0" result="BackgroundImageFix"/>
<feBlend mode="normal" in="SourceGraphic" in2="BackgroundImageFix" result="shape"/>
<feGaussianBlur stdDeviation="7.35" result="effect1_foregroundBlur_64_2"/>
</filter>
<filter id="filter5_f_64_2" x="194.41" y="366.315" width="50.251" height="47.4575" filterUnits="userSpaceOnUse" color-interpolation-filters="sRGB">
<feFlood flood-opacity="0" result="BackgroundImageFix"/>
<feBlend mode="normal" in="SourceGraphic" in2="BackgroundImageFix" result="shape"/>
<feGaussianBlur stdDeviation="7.35" result="effect1_foregroundBlur_64_2"/>
</filter>
<filter id="filter6_f_64_2" x="255.894" y="187.816" width="53.4766" height="53.4766" filterUnits="userSpaceOnUse" color-interpolation-filters="sRGB">
<feFlood flood-opacity="0" result="BackgroundImageFix"/>
<feBlend mode="normal" in="SourceGraphic" in2="BackgroundImageFix" result="shape"/>
<feGaussianBlur stdDeviation="7.35" result="effect1_foregroundBlur_64_2"/>
</filter>
<filter id="filter7_f_64_2" x="538.172" y="181.174" width="53.4767" height="53.4766" filterUnits="userSpaceOnUse" color-interpolation-filters="sRGB">
<feFlood flood-opacity="0" result="BackgroundImageFix"/>
<feBlend mode="normal" in="SourceGraphic" in2="BackgroundImageFix" result="shape"/>
<feGaussianBlur stdDeviation="7.35" result="effect1_foregroundBlur_64_2"/>
</filter>
<filter id="filter8_f_64_2" x="456.81" y="314.01" width="53.4767" height="53.4766" filterUnits="userSpaceOnUse" color-interpolation-filters="sRGB">
<feFlood flood-opacity="0" result="BackgroundImageFix"/>
<feBlend mode="normal" in="SourceGraphic" in2="BackgroundImageFix" result="shape"/>
<feGaussianBlur stdDeviation="7.35" result="effect1_foregroundBlur_64_2"/>
</filter>
<filter id="filter9_f_64_2" x="568.891" y="69.9232" width="104.951" height="104.951" filterUnits="userSpaceOnUse" color-interpolation-filters="sRGB">
<feFlood flood-opacity="0" result="BackgroundImageFix"/>
<feBlend mode="normal" in="SourceGraphic" in2="BackgroundImageFix" result="shape"/>
<feGaussianBlur stdDeviation="7.35" result="effect1_foregroundBlur_64_2"/>
</filter>
<filter id="filter10_f_64_2" x="581.344" y="178.683" width="62.6092" height="62.6091" filterUnits="userSpaceOnUse" color-interpolation-filters="sRGB">
<feFlood flood-opacity="0" result="BackgroundImageFix"/>
<feBlend mode="normal" in="SourceGraphic" in2="BackgroundImageFix" result="shape"/>
<feGaussianBlur stdDeviation="7.35" result="effect1_foregroundBlur_64_2"/>
</filter>
<filter id="filter11_f_64_2" x="216.874" y="338.087" width="62.6091" height="62.6091" filterUnits="userSpaceOnUse" color-interpolation-filters="sRGB">
<feFlood flood-opacity="0" result="BackgroundImageFix"/>
<feBlend mode="normal" in="SourceGraphic" in2="BackgroundImageFix" result="shape"/>
<feGaussianBlur stdDeviation="7.35" result="effect1_foregroundBlur_64_2"/>
</filter>
<filter id="filter12_f_64_2" x="543.984" y="338.087" width="62.6092" height="62.6091" filterUnits="userSpaceOnUse" color-interpolation-filters="sRGB">
<feFlood flood-opacity="0" result="BackgroundImageFix"/>
<feBlend mode="normal" in="SourceGraphic" in2="BackgroundImageFix" result="shape"/>
<feGaussianBlur stdDeviation="7.35" result="effect1_foregroundBlur_64_2"/>
</filter>
<filter id="filter13_f_64_2" x="404.505" y="258.385" width="91.6672" height="91.6672" filterUnits="userSpaceOnUse" color-interpolation-filters="sRGB">
<feFlood flood-opacity="0" result="BackgroundImageFix"/>
<feBlend mode="normal" in="SourceGraphic" in2="BackgroundImageFix" result="shape"/>
<feGaussianBlur stdDeviation="7.35" result="effect1_foregroundBlur_64_2"/>
</filter>
<filter id="filter14_f_64_2" x="607.081" y="122.228" width="91.6672" height="91.6672" filterUnits="userSpaceOnUse" color-interpolation-filters="sRGB">
<feFlood flood-opacity="0" result="BackgroundImageFix"/>
<feBlend mode="normal" in="SourceGraphic" in2="BackgroundImageFix" result="shape"/>
<feGaussianBlur stdDeviation="7.35" result="effect1_foregroundBlur_64_2"/>
</filter>
<filter id="filter15_f_64_2" x="568.891" y="308.199" width="53.4767" height="53.4766" filterUnits="userSpaceOnUse" color-interpolation-filters="sRGB">
<feFlood flood-opacity="0" result="BackgroundImageFix"/>
<feBlend mode="normal" in="SourceGraphic" in2="BackgroundImageFix" result="shape"/>
<feGaussianBlur stdDeviation="7.35" result="effect1_foregroundBlur_64_2"/>
</filter>
<filter id="filter16_f_64_2" x="250.083" y="411.147" width="53.4766" height="53.4766" filterUnits="userSpaceOnUse" color-interpolation-filters="sRGB">
<feFlood flood-opacity="0" result="BackgroundImageFix"/>
<feBlend mode="normal" in="SourceGraphic" in2="BackgroundImageFix" result="shape"/>
<feGaussianBlur stdDeviation="7.35" result="effect1_foregroundBlur_64_2"/>
</filter>
<linearGradient id="paint0_linear_64_2" x1="439" y1="73" x2="439" y2="373.218" gradientUnits="userSpaceOnUse">
<stop stop-color="#FF2D1E"/>
<stop offset="1" stop-color="#A800C2" stop-opacity="0"/>
</linearGradient>
<linearGradient id="paint1_linear_64_2" x1="478.734" y1="322.94" x2="502.192" y2="480.342" gradientUnits="userSpaceOnUse">
<stop stop-color="#86ACFF"/>
<stop offset="1" stop-color="#0900FF" stop-opacity="0"/>
</linearGradient>
<radialGradient id="paint2_radial_64_2" cx="0" cy="0" r="1" gradientUnits="userSpaceOnUse" gradientTransform="translate(245.272 264.368) rotate(90) scale(37.7754)">
<stop stop-color="#FFB45E"/>
<stop offset="1" stop-color="#FF0062" stop-opacity="0"/>
</radialGradient>
<radialGradient id="paint3_radial_64_2" cx="0" cy="0" r="1" gradientUnits="userSpaceOnUse" gradientTransform="translate(295.086 312.521) rotate(90) scale(22.8313)">
<stop stop-color="#FFB45E"/>
<stop offset="1" stop-color="#FF0062" stop-opacity="0"/>
</radialGradient>
<radialGradient id="paint4_radial_64_2" cx="0" cy="0" r="1" gradientUnits="userSpaceOnUse" gradientTransform="translate(535.853 159.759) rotate(90) scale(22.8313)">
<stop stop-color="#FFB45E"/>
<stop offset="1" stop-color="#FF0062" stop-opacity="0"/>
</radialGradient>
<radialGradient id="paint5_radial_64_2" cx="0" cy="0" r="1" gradientUnits="userSpaceOnUse" gradientTransform="translate(219.535 393.053) rotate(90) scale(12.0383)">
<stop stop-color="#FFB45E"/>
<stop offset="1" stop-color="#FF0062" stop-opacity="0"/>
</radialGradient>
<radialGradient id="paint6_radial_64_2" cx="0" cy="0" r="1" gradientUnits="userSpaceOnUse" gradientTransform="translate(282.633 214.554) rotate(90) scale(12.0383)">
<stop stop-color="#FFB45E"/>
<stop offset="1" stop-color="#FF0062" stop-opacity="0"/>
</radialGradient>
<radialGradient id="paint7_radial_64_2" cx="0" cy="0" r="1" gradientUnits="userSpaceOnUse" gradientTransform="translate(564.911 207.912) rotate(90) scale(12.0383)">
<stop stop-color="#FFB45E"/>
<stop offset="1" stop-color="#FF0062" stop-opacity="0"/>
</radialGradient>
<radialGradient id="paint8_radial_64_2" cx="0" cy="0" r="1" gradientUnits="userSpaceOnUse" gradientTransform="translate(483.548 340.749) rotate(90) scale(12.0383)">
<stop stop-color="#5EFF8E"/>
<stop offset="1" stop-color="#0066FF" stop-opacity="0"/>
</radialGradient>
<radialGradient id="paint9_radial_64_2" cx="0" cy="0" r="1" gradientUnits="userSpaceOnUse" gradientTransform="translate(621.366 122.399) rotate(90) scale(37.7754)">
<stop stop-color="#D4E9FF"/>
<stop offset="1" stop-color="#0000FF" stop-opacity="0"/>
</radialGradient>
<radialGradient id="paint10_radial_64_2" cx="0" cy="0" r="1" gradientUnits="userSpaceOnUse" gradientTransform="translate(612.649 209.988) rotate(90) scale(16.6046)">
<stop stop-color="#D4E9FF"/>
<stop offset="1" stop-color="#0000FF" stop-opacity="0"/>
</radialGradient>
<radialGradient id="paint11_radial_64_2" cx="0" cy="0" r="1" gradientUnits="userSpaceOnUse" gradientTransform="translate(248.178 369.392) rotate(90) scale(16.6046)">
<stop stop-color="#D4E9FF"/>
<stop offset="1" stop-color="#0000FF" stop-opacity="0"/>
</radialGradient>
<radialGradient id="paint12_radial_64_2" cx="0" cy="0" r="1" gradientUnits="userSpaceOnUse" gradientTransform="translate(575.288 369.392) rotate(90) scale(16.6046)">
<stop stop-color="#D4E9FF"/>
<stop offset="1" stop-color="#0000FF" stop-opacity="0"/>
</radialGradient>
<radialGradient id="paint13_radial_64_2" cx="0" cy="0" r="1" gradientUnits="userSpaceOnUse" gradientTransform="translate(450.339 304.219) rotate(90) scale(31.1336)">
<stop stop-color="#FF5EFC"/>
<stop offset="1" stop-color="#0009FF" stop-opacity="0"/>
</radialGradient>
<radialGradient id="paint14_radial_64_2" cx="0" cy="0" r="1" gradientUnits="userSpaceOnUse" gradientTransform="translate(652.915 168.061) rotate(90) scale(31.1336)">
<stop stop-color="#FF5EFC"/>
<stop offset="1" stop-color="#0009FF" stop-opacity="0"/>
</radialGradient>
<radialGradient id="paint15_radial_64_2" cx="0" cy="0" r="1" gradientUnits="userSpaceOnUse" gradientTransform="translate(595.629 334.937) rotate(90) scale(12.0383)">
<stop stop-color="#5EFF8E"/>
<stop offset="1" stop-color="#0066FF" stop-opacity="0"/>
</radialGradient>
<radialGradient id="paint16_radial_64_2" cx="0" cy="0" r="1" gradientUnits="userSpaceOnUse" gradientTransform="translate(276.821 437.886) rotate(90) scale(12.0383)">
<stop stop-color="#5EFF8E"/>
<stop offset="1" stop-color="#0066FF" stop-opacity="0"/>
</radialGradient>
</defs>
</svg>
